<svg width="204" height="306" viewBox="0 0 204 306" fill="none" xmlns="http://www.w3.org/2000/svg">
<path d="M199.199 0.985962C200.099 0.0860107 201.4 2.58546 202.1 2.28577C202.66 2.04577 203.6 2.18577 204 2.28577V290.686C203.5 290.553 201.999 291.026 199.998 293.986C196.596 293.986 193.995 292.306 191.994 293.986C191.494 293.986 187.792 288.086 181.789 293.986C181.189 294.353 179.328 294.866 176.687 293.986C175.719 293.953 173.705 294.046 173.385 294.686C172.734 295.986 168.482 294.286 164.78 292.186C163.78 291.053 161.299 289.006 159.378 289.885C158.578 290.752 156.777 292.425 155.977 292.186C154.976 291.886 149.073 289.185 147.672 289.385C146.271 289.585 143.57 287.886 141.569 289.385C141.369 289.385 141.569 288.786 139.568 288.986C137.567 289.186 136.667 287.986 135.866 289.186C135.065 290.387 127.062 294.286 125.361 294.186C124.001 294.106 123.06 292.353 122.76 291.486C122.159 291.619 120.959 291.946 120.959 292.186C120.958 292.484 120.259 290.286 119.559 290.586C118.858 290.886 117.258 291.686 117.058 292.186C116.898 292.586 116.391 292.619 116.157 292.586C115.824 293.052 115.076 293.886 114.756 293.486C114.436 293.086 113.924 292.494 113.834 292.273C113.643 292.501 112.929 293.265 112.155 295.586C111.722 295.419 110.855 295.026 110.854 294.786C110.854 294.486 109.553 297.286 108.953 297.286C108.473 297.286 107.286 296.286 106.752 295.786L104.852 297.686C104.691 297.846 103.784 297.753 103.351 297.686C102.683 298.053 100.549 298.486 97.3477 297.286L94.0459 300.486L92.1445 300.686C92.0444 301.753 91.7243 303.866 91.2441 303.786C90.6436 303.685 89.1436 302.886 89.1436 302.586C89.1434 302.286 88.7423 303.485 85.2412 301.586C84.9742 301.452 84.3208 301.406 83.8408 302.286L83.1406 302.586C82.607 302.952 81.4999 303.746 81.3398 303.986C81.1397 304.286 80.5395 303.985 79.7393 302.086C79.7059 302.619 79.5986 303.666 79.4385 303.586C79.2378 303.483 78.4383 301.285 78.2383 300.885C78.038 300.485 77.3375 299.686 76.2373 300.885C75.3573 301.845 74.8037 302.219 74.6367 302.286L73.8359 302.586C73.8359 302.686 73.7156 302.906 73.2354 302.986C72.6348 303.086 71.2351 303.085 70.835 302.586C70.4348 302.086 69.6337 301.086 68.5332 301.586C67.6531 301.985 67.233 302.419 67.1328 302.586C66.4658 302.186 64.852 301.626 63.7314 302.586C62.6111 303.545 61.9307 304.652 61.7305 305.086C61.2969 305.186 60.3495 305.326 60.0293 305.086C59.629 304.786 58.4286 304.486 58.2285 304.686C58.0681 304.846 57.428 305.286 57.1279 305.486C55.8273 302.553 52.7461 296.946 50.8252 297.986C50.5251 298.219 49.824 298.646 49.4238 298.486C48.9238 298.287 48.9235 300.885 48.3232 300.885C47.7224 300.883 45.123 295.887 45.1221 295.486C45.1221 295.166 44.9223 296.285 44.8223 296.885C43.6883 294.885 40.9796 290.726 39.2188 290.086C39.0187 289.285 39.0187 286.285 38.5186 285.885C38.0175 285.485 35.517 284.286 34.0166 284.486C33.8165 284.486 32.9161 282.086 32.2158 282.086C31.5155 282.086 31.1151 282.886 30.915 283.186C30.7544 283.426 29.7812 283.62 29.3145 283.686L28.2139 284.486L27.2129 281.385C26.079 282.419 23.1109 283.606 20.3096 280.086C19.9759 280.052 19.2097 280.106 18.8096 280.586L17.8086 278.786C17.3417 279.219 16.2878 280.086 15.8076 280.086C15.2068 280.085 10.078 277.299 7.10352 278.786C6.30312 279.186 4.00196 273.486 0 281.786V21.5856H1.7998C8.39893 27.5838 12.0992 21.0875 12.7998 21.2858C13.4998 21.4858 27.1004 21.0865 27.4004 21.0865C27.6402 21.0855 27.8338 20.2188 27.9004 19.7858C29.2605 17.5465 32.9329 18.4522 34.5996 19.1852L38.4004 17.486C41.3602 15.7264 44.1669 17.8856 45.2002 19.1852C50.9001 18.3853 55.5004 18.7862 57.9004 18.6862C60.2983 18.5859 65.49 16.0913 65.5996 16.0865C65.6996 16.0865 65.3 16.986 66.5 17.486C67.6999 17.9859 67.9001 17.2864 69 16.0865C70.1 14.8865 70.7002 15.386 71.2002 15.986C71.7001 16.5858 71.4001 15.8863 71.5 15.3864C71.6 14.8864 71.8994 13.6858 72.3994 12.7858C72.8993 11.886 72.4997 13.1864 73.0996 13.8864C73.6996 14.5864 73.4996 12.5858 74.5996 11.2858C75.6995 9.98587 75.6998 9.58647 78.5996 10.8864C81.4988 12.186 82.7991 11.6864 83.0996 11.6862C83.3996 11.6862 83.8002 11.9864 84.7002 12.3864C85.5997 12.7856 85.9996 11.087 86.3994 10.5865C86.7194 10.1866 87.7998 10.2191 88.2998 10.2858C91.9995 8.18603 94.8996 11.0862 97.8994 10.5865C100.899 10.0866 101.4 12.2865 102.1 12.5865C102.8 12.8865 103.4 12.6862 104.5 13.1862C105.6 13.6862 105.5 15.2862 106 15.6862C106.5 16.0858 107 14.3863 107.8 15.2858C108.6 16.1857 112.6 17.4859 113 17.986L113.025 18.0182C113.482 18.5909 115.531 21.1582 117.1 19.7858C118.7 18.386 122.799 18.286 123.6 18.486C124.4 18.686 126.799 18.0857 128.399 17.2858C129.999 16.4858 130.8 18.3856 132.1 18.7858C133.14 19.1058 135.666 18.7193 136.8 18.486C137.4 15.8863 139.7 18.8866 140.3 19.0865C140.78 19.2465 141.1 19.1532 141.2 19.0865C142.3 16.2866 144.4 20.7864 145 21.3864C145.6 21.9858 146 20.7864 146.2 20.8864C146.4 20.9886 146.601 22.6869 147.7 23.3864C148.8 24.0854 149.399 21.2857 149.899 20.7858C150.399 20.2858 150.1 20.8866 150.8 21.5865C151.361 22.1462 156.433 21.6191 158.899 21.2858C164.099 18.9858 163.5 19.4858 165.8 18.7858C168.1 18.0859 168.6 20.2865 169.5 20.0865C170.4 19.8866 174.7 20.2858 176.7 20.2858C178.3 20.2846 179.633 14.4864 180.1 11.5865C185.6 12.7865 184.6 6.68577 188.3 7.28577C189.188 7.4298 189 6.88634 189.5 6.38635C190 5.88657 190 6.38583 190.699 6.18616C191.399 5.98616 191.999 3.98589 192.399 3.78577C192.799 3.58578 193.3 5.48553 194.399 5.28577C195.499 5.08577 196 3.68658 196.5 3.08655C197 2.4867 197.699 3.18576 197.899 2.88635C198.099 2.58638 198.299 1.88583 199.199 0.985962ZM198.476 288.541C198.957 288.652 199.41 288.648 199.725 288.416L198.476 288.541Z" fill="#EEEEEE"/>
<path d="M0 27.6856V21.5856H1.8C8.39999 27.5846 12.1 21.0865 12.8 21.2865C13.5 21.4865 27.1 21.0865 27.4 21.0865C27.64 21.0865 27.8333 20.2199 27.9 19.7865C29.26 17.5465 32.9333 18.4526 34.5999 19.1856L38.3999 17.4865C41.3599 15.7265 44.1666 17.8859 45.1999 19.1856C50.8999 18.3857 55.4999 18.7865 57.8999 18.6865C60.2999 18.5865 65.4999 16.0865 65.5999 16.0865C65.6999 16.0865 65.2999 16.9865 66.4999 17.4865C67.6999 17.9865 67.8999 17.2865 68.9999 16.0865C70.0999 14.8865 70.6999 15.3865 71.1999 15.9865C71.6999 16.5865 71.3999 15.8865 71.4999 15.3865C71.5999 14.8865 71.8999 13.6865 72.3999 12.7865C72.8999 11.8865 72.4999 13.1865 73.0999 13.8865C73.6999 14.5865 73.4999 12.5865 74.5999 11.2865C75.6999 9.98653 75.6999 9.58653 78.5999 10.8865C81.4999 12.1865 82.7999 11.6865 83.0999 11.6865C83.3999 11.6865 83.7999 11.9865 84.6999 12.3865C85.5999 12.7865 85.9999 11.0865 86.3999 10.5865C86.7199 10.1865 87.7999 10.2199 88.2999 10.2865C91.9998 8.18654 94.8998 11.0865 97.8998 10.5865C100.9 10.0865 101.4 12.2865 102.1 12.5865C102.8 12.8865 103.4 12.6865 104.5 13.1865C105.6 13.6865 105.5 15.2865 106 15.6865C106.5 16.0865 107 14.3865 107.8 15.2865C108.6 16.1865 112.6 17.4865 113 17.9865L113.025 18.0183C113.482 18.5905 115.531 21.1591 117.1 19.7865C118.7 18.3865 122.8 18.2865 123.6 18.4865C124.4 18.6865 126.8 18.0865 128.4 17.2865C130 16.4865 130.8 18.3865 132.1 18.7865C133.14 19.1065 135.666 18.7199 136.8 18.4865C137.4 15.8865 139.7 18.8865 140.3 19.0865C140.78 19.2465 141.1 19.1532 141.2 19.0865C142.3 16.2865 144.4 20.7865 145 21.3865C145.6 21.9865 146 20.7865 146.2 20.8865C146.4 20.9865 146.6 22.6865 147.7 23.3865C148.8 24.0865 149.4 21.2865 149.9 20.7865C150.4 20.2865 150.1 20.8865 150.8 21.5865C151.36 22.1465 156.433 21.6198 158.9 21.2865C164.1 18.9865 163.5 19.4865 165.8 18.7865C168.1 18.0865 168.6 20.2865 169.5 20.0865C170.4 19.8865 174.7 20.2865 176.7 20.2865C178.3 20.2865 179.633 14.4865 180.1 11.5865C185.6 12.7865 184.6 6.68654 188.3 7.28654C189.188 7.4306 189 6.88654 189.5 6.38654C190 5.88654 190 6.38654 190.7 6.18654C191.4 5.98654 192 3.98654 192.4 3.78654C192.8 3.58654 193.3 5.48654 194.4 5.28654C195.5 5.08654 196 3.68654 196.5 3.08654C197 2.48655 197.7 3.18654 197.9 2.88654C198.1 2.58654 198.3 1.88623 199.2 0.986232C200.1 0.0862337 201.4 2.58593 202.1 2.28593C202.66 2.04593 203.6 2.18593 204 2.28593V9.08592C203.9 9.01926 203.66 8.86592 203.5 8.78592C203.3 8.68592 202.8 8.98592 201.9 9.08592C201 9.18592 200 8.18554 199.2 7.68554C198.4 7.18554 198.3 9.08554 198 9.48554C197.7 9.88554 197.8 9.58554 196.7 9.68554C195.6 9.78554 193.6 12.1855 193.4 12.0855C193.2 11.9855 193 11.2858 192.6 10.7858C192.2 10.2858 191 12.0858 189.7 13.4857C188.66 14.6057 186.8 14.4191 186 14.1857C184.6 18.8857 180.9 17.6857 180.4 17.9857C179.9 18.2857 178.5 23.2857 178.1 24.9857C177.7 26.6857 176.8 25.9857 175.5 26.1857C174.2 26.3857 170.7 26.3857 169.3 26.1857C167.9 25.9857 167.5 25.1857 165.2 24.4857C162.9 23.7857 159.3 27.3857 158.3 27.5857C157.3 27.7857 150.5 27.3857 150 26.5857C149.5 25.7857 147.4 29.3857 147.1 29.3857C146.8 29.3857 146.1 26.8857 146 26.7857C145.9 26.6857 145.3 27.2857 144.8 27.3857C144.3 27.4857 142.4 24.0857 142.2 24.0857C142 24.0857 141.2 25.5857 140.6 25.2857C140 24.9857 138.4 22.1857 137.4 23.3857C136.4 24.5857 134.2 24.6857 133.1 24.6857C132 24.6857 131.8 21.7857 129.9 23.7857C128 25.7857 122.5 22.9857 119.1 25.2857C116.38 27.1257 113.633 24.9191 112.6 23.5857C111.5 23.3857 109.14 22.7657 108.5 21.8857C107.86 21.0057 106.433 21.3857 105.8 21.6857C105.7 21.1857 104.6 18.6857 103.6 19.0857C102.8 19.4057 101.933 18.7521 101.6 18.3853C100.24 16.545 97.5665 16.4852 96.3998 16.6853C91.5998 15.0052 88.9998 15.9853 88.2999 16.6853C87.9998 16.3853 87.2999 15.9453 86.8998 16.5853C86.3999 17.3853 84.0999 18.8853 83.7999 18.3853C83.4999 17.8853 83.1999 17.7853 81.8999 18.1855C81.0999 18.1855 76.9999 16.1855 75.4999 16.4855C74.2999 16.7255 73.3999 18.9188 73.0999 19.9855C73.1332 19.8189 72.9799 19.4256 72.0999 19.1856C71.1691 18.9317 71.1691 21.6853 71.1911 22.2959C71.1969 22.3246 71.1999 22.3545 71.1999 22.3856C71.1999 22.4471 71.1952 22.4069 71.1911 22.2959C71.1234 21.9557 70.6766 21.7856 70.3999 21.7856C69.6999 22.1856 68.1599 23.0856 67.5999 23.4856C67.0399 23.8856 65.8332 22.9189 65.2999 22.3856C63.8999 23.0856 57.7999 24.8856 56.9999 24.4856C56.1999 24.0856 53.8999 24.4856 52.4999 24.4856C51.3799 24.4856 47.1666 24.9522 45.1999 25.1856C41.5999 20.2856 34.5999 25.1856 34.2999 25.1856C33.9999 25.1856 33.9999 23.9856 30.6999 24.4856C27.4 24.9856 28 26.3856 28 26.6856C28 26.9256 27.2666 26.7856 26.9 26.6856C18.7 28.3856 13.9 26.4856 13.1 27.1856C12.46 27.7456 10.3666 29.1522 9.39998 29.7856C6.19999 31.8856 1.9 27.6856 1.5 27.6856H0Z" fill="white"/>
<path d="M0 281.786V275.486C1.13389 273.186 4.08199 269.486 6.80332 273.086C7.00342 273.053 7.90386 273.066 9.90484 273.386C12.4061 273.786 11.8058 273.786 13.7067 273.986C15.6076 274.186 17.1084 273.686 17.5086 273.386C17.8754 273.886 18.6491 274.906 18.8092 274.986C19.0093 275.086 19.3094 273.486 20.3099 274.486C21.3104 275.486 24.1118 277.486 26.3129 276.486C26.553 276.486 27.1466 275.82 27.4134 275.486C27.38 276.353 27.4534 278.126 28.0137 278.286C28.714 278.486 27.8136 278.286 29.1142 277.886C30.4149 277.486 30.1147 278.086 31.1152 277.286C32.1157 276.486 32.2157 275.686 33.0161 276.786C33.8165 277.886 32.716 278.686 34.1167 278.786C35.5173 278.886 38.819 278.386 39.0191 280.086C39.2192 281.786 39.0191 282.786 39.0191 283.486C39.0191 284.186 42.3207 285.586 44.8219 290.486C44.8886 290.253 45.042 289.686 45.122 289.286C45.2221 288.786 46.8229 292.986 47.7233 293.786C48.6238 294.586 48.7238 293.986 49.124 292.986C49.5242 291.986 49.7243 291.786 50.3246 291.886C50.9249 291.986 51.4251 292.086 51.8253 291.886C52.2255 291.686 52.0254 289.586 53.7262 292.986C55.4271 296.386 56.3275 298.186 56.7277 298.286C57.1279 298.386 57.228 298.686 58.2284 298.286C59.2289 297.886 58.9288 297.986 60.4295 297.986C61.9303 297.986 62.1303 297.086 63.9312 295.786C65.7321 294.486 65.8322 295.786 66.9327 295.786C68.0332 295.786 68.1333 294.686 69.534 295.086C70.9346 295.486 71.635 296.386 72.4354 296.086C73.2358 295.786 72.5354 296.786 74.0362 296.086C75.5369 295.386 76.0371 293.786 76.8375 293.786C77.6379 293.786 78.7385 294.486 78.9386 295.786C79.0986 296.826 79.3388 296.819 79.4388 296.686L79.6813 295.716C79.6975 295.633 79.7175 295.555 79.739 295.486L79.6813 295.716C79.5718 296.283 79.6329 297.116 80.5393 297.186C81.84 297.286 81.6399 296.686 82.3402 296.386C82.9005 296.146 83.3741 295.886 83.5408 295.786C83.7409 295.553 84.1811 295.086 84.3412 295.086C84.5413 295.086 85.0415 294.586 86.6423 295.486C88.2431 296.386 88.2431 296.086 88.7433 296.086C89.2436 296.086 89.6438 296.686 89.9439 296.686C90.2441 296.686 90.6443 297.586 91.2446 296.686C91.8449 295.786 92.145 295.786 92.145 294.786C92.145 293.986 92.4118 293.786 92.5452 293.786C92.5119 294.153 92.8654 294.586 94.5462 293.386C96.227 292.186 96.9807 291.219 97.1475 290.886C98.7149 291.253 102.03 291.906 102.75 291.586C103.471 291.266 103.651 290.853 103.651 290.686C103.884 290.953 104.411 291.406 104.651 291.086C104.951 290.686 105.351 290.086 106.152 289.886C106.952 289.686 106.452 291.086 107.753 290.886C109.053 290.686 109.153 290.286 109.954 289.486C110.754 288.686 110.554 290.986 111.655 289.486C112.755 287.986 113.355 285.686 113.856 286.186C114.356 286.686 114.656 287.486 115.456 287.086C116.097 286.766 116.657 286.353 116.857 286.186C117.557 285.553 119.078 284.386 119.558 284.786C120.039 285.186 120.692 285.886 120.959 286.186C121.559 285.619 122.86 284.926 123.26 286.686C124.094 288.286 127.782 289.926 135.866 283.686C136.167 283.686 138.368 281.186 141.169 283.686C141.936 282.953 144.09 281.826 146.572 283.186C147.906 283.319 150.714 283.706 151.274 284.186C151.974 284.786 152.875 285.786 154.275 285.786C155.676 285.786 157.177 286.386 158.177 285.286C159.178 284.186 158.778 283.686 159.878 283.686C160.979 283.686 163.18 284.386 164.28 285.286C165.381 286.186 163.88 285.986 166.281 286.686C168.682 287.386 170.583 289.286 172.084 288.786C173.585 288.286 172.984 287.986 174.685 288.086C176.386 288.186 179.788 288.786 181.189 288.086C182.589 287.386 186.891 282.986 191.494 287.686C192.861 287.319 195.796 286.806 196.596 287.686C197.496 288.286 199.437 289.206 199.998 288.086C200.698 286.686 202.899 284.086 204 284.686V290.686C203.499 290.553 201.999 291.026 199.998 293.986C196.596 293.986 193.995 292.306 191.994 293.986C191.494 293.986 187.792 288.086 181.789 293.986C181.189 294.353 179.328 294.866 176.686 293.986C175.719 293.953 173.705 294.046 173.385 294.686C172.734 295.986 168.482 294.286 164.78 292.186C163.78 291.053 161.299 289.006 159.378 289.886C158.577 290.753 156.777 292.426 155.976 292.186C154.976 291.886 149.073 289.186 147.672 289.386C146.271 289.586 143.57 287.886 141.569 289.386C141.369 289.386 141.569 288.786 139.568 288.986C137.567 289.186 136.667 287.986 135.866 289.186C135.066 290.386 127.062 294.286 125.361 294.186C124.001 294.106 123.06 292.353 122.76 291.486C122.16 291.619 120.959 291.946 120.959 292.186C120.959 292.486 120.259 290.286 119.558 290.586C118.858 290.886 117.257 291.686 117.057 292.186C116.897 292.586 116.39 292.619 116.157 292.586C115.823 293.053 115.076 293.886 114.756 293.486C114.436 293.086 113.923 292.494 113.834 292.273C113.643 292.5 112.929 293.265 112.155 295.586C111.721 295.419 110.854 295.026 110.854 294.786C110.854 294.486 109.554 297.286 108.953 297.286C108.473 297.286 107.286 296.286 106.752 295.786L104.851 297.686C104.691 297.846 103.784 297.753 103.35 297.686C102.683 298.053 100.549 298.486 97.3475 297.286L94.0459 300.486L92.145 300.686C92.045 301.753 91.7248 303.866 91.2446 303.786C90.6443 303.686 89.1435 302.886 89.1435 302.586C89.1435 302.286 88.7433 303.486 85.2416 301.586C84.9748 301.453 84.3212 301.406 83.841 302.286L83.1406 302.586C82.607 302.953 81.4998 303.746 81.3397 303.986C81.1396 304.286 80.5393 303.986 79.739 302.086C79.7056 302.619 79.5989 303.666 79.4388 303.586C79.2387 303.486 78.4383 301.286 78.2382 300.886C78.0381 300.486 77.3378 299.686 76.2372 300.886C75.3568 301.846 74.8032 302.219 74.6365 302.286L73.8361 302.586C73.8361 302.686 73.716 302.906 73.2358 302.986C72.6355 303.086 71.2348 303.086 70.8346 302.586C70.4344 302.086 69.634 301.086 68.5335 301.586C67.653 301.986 67.2328 302.419 67.1328 302.586C66.4658 302.186 64.8517 301.626 63.7311 302.586C62.6106 303.546 61.9303 304.653 61.7302 305.086C61.2966 305.186 60.3495 305.326 60.0293 305.086C59.6291 304.786 58.4285 304.486 58.2284 304.686C58.0684 304.846 57.4281 305.286 57.1279 305.486C55.8273 302.553 52.7458 296.946 50.8248 297.986C50.5247 298.219 49.8243 298.646 49.4241 298.486C48.9239 298.286 48.9239 300.886 48.3236 300.886C47.7233 300.886 45.122 295.886 45.122 295.486C45.122 295.166 44.9219 296.286 44.8219 296.886C43.688 294.886 40.98 290.726 39.2192 290.086C39.0191 289.286 39.0191 286.286 38.5188 285.886C38.0186 285.486 35.5173 284.286 34.0166 284.486C33.8165 284.486 32.9161 282.086 32.2157 282.086C31.5154 282.086 31.1152 282.886 30.9151 283.186C30.755 283.426 29.7812 283.619 29.3143 283.686L28.2138 284.486L27.2133 281.386C26.0794 282.419 23.1113 283.606 20.3099 280.086C19.9764 280.053 19.2094 280.106 18.8092 280.586L17.8087 278.786C17.3418 279.22 16.288 280.086 15.8077 280.086C15.2074 280.086 10.0781 277.3 7.10347 278.786C6.30308 279.186 4.00196 273.486 0 281.786Z" fill="white"/>
</svg>
